<svg width="24" height="24" viewBox="0 0 24 24" fill="none" xmlns="http://www.w3.org/2000/svg">
<path d="M4 22V17C5.46667 16 6.54167 14.9583 7.225 13.875C7.90833 12.7917 8.375 11.8333 8.625 11H6V9H8.25C8.01667 8.63333 7.83333 8.24167 7.7 7.825C7.56667 7.40833 7.5 6.96667 7.5 6.5C7.5 5.25 7.9375 4.1875 8.8125 3.3125C9.6875 2.4375 10.75 2 12 2C13.25 2 14.3125 2.4375 15.1875 3.3125C16.0625 4.1875 16.5 5.25 16.5 6.5C16.5 6.96667 16.4333 7.40833 16.3 7.825C16.1667 8.24167 15.9833 8.63333 15.75 9H18V11H15.375C15.625 11.8333 16.0917 12.7917 16.775 13.875C17.4583 14.9583 18.5333 16 20 17V22H4ZM6 20H18V18C16.4667 16.8 15.3583 15.5625 14.675 14.2875C13.9917 13.0125 13.5333 11.9167 13.3 11H10.7C10.4667 11.9167 10.0083 13.0125 9.325 14.2875C8.64167 15.5625 7.53333 16.8 6 18V20ZM12 9C12.7 9 13.2917 8.75833 13.775 8.275C14.2583 7.79167 14.5 7.2 14.5 6.5C14.5 5.8 14.2583 5.20833 13.775 4.725C13.2917 4.24167 12.7 4 12 4C11.3 4 10.7083 4.24167 10.225 4.725C9.74167 5.20833 9.5 5.8 9.5 6.5C9.5 7.2 9.74167 7.79167 10.225 8.275C10.7083 8.75833 11.3 9 12 9Z" fill="#303030"/>
</svg>
