<svg width="24" height="24" viewBox="0 0 24 24" fill="none" xmlns="http://www.w3.org/2000/svg">
<path d="M5.575 21L3.35 8.975C2.73333 9.09167 2.1875 8.95 1.7125 8.55C1.2375 8.15 1 7.63333 1 7C1 6.45 1.19583 5.97917 1.5875 5.5875C1.97917 5.19583 2.45 5 3 5C3.55 5 4.02083 5.19583 4.4125 5.5875C4.80417 5.97917 5 6.45 5 7C5 7.23333 4.96667 7.45 4.9 7.65C4.83333 7.85 4.73333 8.03333 4.6 8.2C4.96667 8.41667 5.3375 8.59583 5.7125 8.7375C6.0875 8.87917 6.48333 8.95 6.9 8.95C7.63333 8.95 8.3125 8.76667 8.9375 8.4C9.5625 8.03333 10.05 7.53333 10.4 6.9L11.025 5.75C10.7083 5.56667 10.4583 5.325 10.275 5.025C10.0917 4.725 10 4.38333 10 4C10 3.45 10.1958 2.97917 10.5875 2.5875C10.9792 2.19583 11.45 2 12 2C12.55 2 13.0208 2.19583 13.4125 2.5875C13.8042 2.97917 14 3.45 14 4C14 4.38333 13.9083 4.725 13.725 5.025C13.5417 5.325 13.2917 5.56667 12.975 5.75L13.6 6.9C13.95 7.53333 14.4375 8.03333 15.0625 8.4C15.6875 8.76667 16.3667 8.95 17.1 8.95C17.5167 8.95 17.9125 8.88333 18.2875 8.75C18.6625 8.61667 19.0333 8.44167 19.4 8.225C19.2667 8.05833 19.1667 7.87083 19.1 7.6625C19.0333 7.45417 19 7.23333 19 7C19 6.45 19.1958 5.97917 19.5875 5.5875C19.9792 5.19583 20.45 5 21 5C21.55 5 22.0208 5.19583 22.4125 5.5875C22.8042 5.97917 23 6.45 23 7C23 7.63333 22.7625 8.15 22.2875 8.55C21.8125 8.95 21.2667 9.09167 20.65 8.975L18.425 21H5.575Z" fill="#303030"/>
</svg>
