<svg width="24" height="24" viewBox="0 0 24 24" fill="none" xmlns="http://www.w3.org/2000/svg">
<path d="M12 22V13.125C12.2 12.775 12.4208 12.4458 12.6625 12.1375C12.9042 11.8292 13.1667 11.5333 13.45 11.25C14.1833 10.55 15.0208 10 15.9625 9.6C16.9042 9.2 17.9167 9 19 9C20.1 9 21.0417 9.39167 21.825 10.175C22.6083 10.9583 23 11.9 23 13V18C23 19.1 22.6083 20.0417 21.825 20.825C21.0417 21.6083 20.1 22 19 22H12ZM5 22C3.9 22 2.95833 21.6083 2.175 20.825C1.39167 20.0417 1 19.1 1 18V13C1 11.9 1.39167 10.9583 2.175 10.175C2.95833 9.39167 3.9 9 5 9C6.1 9 7.12917 9.20833 8.0875 9.625C9.04583 10.0417 9.89167 10.6083 10.625 11.325C10.9083 11.5917 11.1625 11.875 11.3875 12.175C11.6125 12.475 11.8167 12.7917 12 13.125V22H5ZM5 20H11V17C11 15.3333 10.4125 13.9167 9.2375 12.75C8.0625 11.5833 6.65 11 5 11C4.45 11 3.97917 11.1958 3.5875 11.5875C3.19583 11.9792 3 12.45 3 13V18C3 18.55 3.19583 19.0208 3.5875 19.4125C3.97917 19.8042 4.45 20 5 20ZM13 20H19C19.55 20 20.0208 19.8042 20.4125 19.4125C20.8042 19.0208 21 18.55 21 18V13C21 12.45 20.8042 11.9792 20.4125 11.5875C20.0208 11.1958 19.55 11 19 11C17.35 11 15.9375 11.5833 14.7625 12.75C13.5875 13.9167 13 15.3333 13 17V20ZM11 7.15V6H8V4H11V1H13V4H16V6H13V7.125C13.65 7.29167 14.2167 7.60417 14.7 8.0625C15.1833 8.52083 15.5333 9.06667 15.75 9.7C15.4167 9.83333 15.1083 9.99167 14.825 10.175C14.5417 10.3583 14.2583 10.5583 13.975 10.775C13.925 10.275 13.7125 9.85417 13.3375 9.5125C12.9625 9.17083 12.5167 9 12 9C11.4833 9 11.0375 9.17083 10.6625 9.5125C10.2875 9.85417 10.075 10.275 10.025 10.775C9.75833 10.5583 9.475 10.3583 9.175 10.175C8.875 9.99167 8.56667 9.83333 8.25 9.7C8.46667 9.06667 8.82083 8.52917 9.3125 8.0875C9.80417 7.64583 10.3667 7.33333 11 7.15Z" fill="#303030"/>
</svg>
