<svg width="24" height="24" viewBox="0 0 24 24" fill="none" xmlns="http://www.w3.org/2000/svg">
<path d="M13 22V13.125C13 12.7917 13.0125 12.4542 13.0375 12.1125C13.0625 11.7708 13.2 11.4833 13.45 11.25C14.1833 10.55 15.0208 10 15.9625 9.6C16.9042 9.2 17.9167 9 19 9C20.1 9 21.0417 9.39167 21.825 10.175C22.6083 10.9583 23 11.9 23 13V18C23 19.1 22.6083 20.0417 21.825 20.825C21.0417 21.6083 20.1 22 19 22H13ZM5 22C3.9 22 2.95833 21.6083 2.175 20.825C1.39167 20.0417 1 19.1 1 18V13C1 11.9 1.39167 10.9583 2.175 10.175C2.95833 9.39167 3.9 9 5 9C6.1 9 7.12917 9.20833 8.0875 9.625C9.04583 10.0417 9.89167 10.6083 10.625 11.325C10.8583 11.5583 10.9792 11.8333 10.9875 12.15C10.9958 12.4667 11 12.7917 11 13.125V22H5ZM12 9.875C11.6167 9.49167 11.2042 9.14167 10.7625 8.825C10.3208 8.50833 9.85833 8.23333 9.375 8C9.60833 7.8 9.8625 7.62917 10.1375 7.4875C10.4125 7.34583 10.7 7.23333 11 7.15V6H8V4H11V1H13V4H16V6H13V7.125C13.3167 7.20833 13.6083 7.325 13.875 7.475C14.1417 7.625 14.3917 7.8 14.625 8C14.1417 8.23333 13.6792 8.50833 13.2375 8.825C12.7958 9.14167 12.3833 9.49167 12 9.875Z" fill="#303030"/>
</svg>
