<svg width="24" height="24" viewBox="0 0 24 24" fill="none" xmlns="http://www.w3.org/2000/svg">
<path d="M4 22V17C4.91667 16.3667 5.74583 15.6333 6.4875 14.8C7.22917 13.9667 7.81667 13.0333 8.25 12H6V10H7.8L6.8 8.35C6.56667 7.96667 6.475 7.54583 6.525 7.0875C6.575 6.62917 6.76667 6.23333 7.1 5.9L12 1L16.9 5.9C17.2333 6.23333 17.425 6.62917 17.475 7.0875C17.525 7.54583 17.4333 7.96667 17.2 8.35L16.2 10H18V12H15.75C16.1833 13.0333 16.7708 13.9667 17.5125 14.8C18.2542 15.6333 19.0833 16.3667 20 17V22H4ZM12.7125 7.7125C12.9042 7.52083 13 7.28333 13 7C13 6.71667 12.9042 6.47917 12.7125 6.2875C12.5208 6.09583 12.2833 6 12 6C11.7167 6 11.4792 6.09583 11.2875 6.2875C11.0958 6.47917 11 6.71667 11 7C11 7.28333 11.0958 7.52083 11.2875 7.7125C11.4792 7.90417 11.7167 8 12 8C12.2833 8 12.5208 7.90417 12.7125 7.7125Z" fill="#303030"/>
</svg>
