<svg width="24" height="24" viewBox="0 0 24 24" fill="none" xmlns="http://www.w3.org/2000/svg">
<path d="M5.00001 22V18C5.00001 17.6167 5.10001 17.2708 5.30001 16.9625C5.50001 16.6542 5.76668 16.4083 6.10001 16.225L11 13.75V12L7.52501 13.725C7.32501 13.825 7.11668 13.9 6.90001 13.95C6.68335 14 6.46668 14.025 6.25001 14.025C5.73335 14.025 5.24585 13.8917 4.78751 13.625C4.32918 13.3583 3.97501 12.975 3.72501 12.475C3.49168 12.025 3.39168 11.5458 3.42501 11.0375C3.45835 10.5292 3.61668 10.0583 3.90001 9.625L7.00001 5L5.00001 2H11C13.2167 2 15.1042 2.775 16.6625 4.325C18.2208 5.875 19 7.76667 19 10V22H5.00001Z" fill="#303030"/>
</svg>
