<svg width="24" height="24" viewBox="0 0 24 24" fill="none" xmlns="http://www.w3.org/2000/svg">
<path d="M4 22V17C5.35 15.9167 6.36667 14.7417 7.05 13.475C7.73333 12.2083 8.21667 11.05 8.5 10H8C7.45 10 6.97917 9.80417 6.5875 9.4125C6.19583 9.02083 6 8.55 6 8V2H11V5H13V2H18V8C18 8.55 17.8042 9.02083 17.4125 9.4125C17.0208 9.80417 16.55 10 16 10H15.475C15.7583 11.05 16.2417 12.2083 16.925 13.475C17.6083 14.7417 18.6333 15.9167 20 17V22H4ZM6 20H18V17.925C16.5667 16.625 15.5125 15.2625 14.8375 13.8375C14.1625 12.4125 13.6833 11.1333 13.4 10H10.575C10.3083 11.1333 9.83333 12.4125 9.15 13.8375C8.46667 15.2625 7.41667 16.625 6 17.925V20ZM8 8H16V4H15V7H9V4H8V8Z" fill="#303030"/>
</svg>
